<svg xmlns="http://www.w3.org/2000/svg" viewBox="0 0 144.77 47.17"><path d="M18.67 36.32A18.16 18.16 0 01.5 18.41 18.16 18.16 0 0118.67.5a17 17 0 0112.27 4.94l-3.45 3.45a12.45 12.45 0 00-8.82-3.49 12.84 12.84 0 00-12.84 13 12.85 12.85 0 0012.84 13 12 12 0 009-3.58 10.15 10.15 0 002.7-6.15h-11.7v-4.86h16.47a15.53 15.53 0 01.26 3.06c0 3.67-1 8.21-4.24 11.44a16.41 16.41 0 01-12.49 5.01zm42.2-11.53a11.36 11.36 0 11-22.72 0 11.36 11.36 0 1122.72 0zm-5 0c0-4.15-3-7-6.39-7s-6.39 2.88-6.39 7 3 7 6.39 7 6.41-2.9 6.41-7zm30.45 0a11.36 11.36 0 11-22.72 0 11.36 11.36 0 1122.72 0zm-5 0c0-4.15-3-7-6.39-7s-6.39 2.84-6.39 7 3 7 6.39 7 6.44-2.9 6.44-7zm29.81-10.83v20.71c0 8.52-5 12-11 12a11 11 0 01-10.22-6.81l4.41-1.83a6.38 6.38 0 005.81 4.1c3.8 0 6.16-2.36 6.16-6.77v-1.69h-.18a7.86 7.86 0 01-6.02 2.65 11.42 11.42 0 01-11-11.49c0-6.51 5.28-11.57 11.05-11.57a8 8 0 016.07 2.58h.18v-1.88zm-4.45 10.87c0-4.06-2.71-7-6.16-7s-6.42 3-6.42 7a6.61 6.61 0 006.42 6.94c3.5.01 6.21-2.92 6.21-6.94zm13.41-23.1v33.94h-5.1V1.73zm19.92 26.86l3.93 2.62a11.46 11.46 0 01-9.61 5.11 11.15 11.15 0 01-11.28-11.53c0-6.86 4.77-11.53 10.71-11.53s8.91 4.76 9.87 7.34l.52 1.31-15.42 6.38a5.87 5.87 0 005.59 3.49 6.59 6.59 0 005.66-3.19zm-12.1-4.15l10.31-4.28a4.47 4.47 0 00-4.31-2.49 6.33 6.33 0 00-6.03 6.77z" fill="#fff" stroke="#fff" stroke-miterlimit="10"/></svg>