<svg class="devsite-google-wordmark" xmlns="http://www.w3.org/2000/svg" viewBox="0 0 148 48">
  <path d="M19.58 37.65c-9.87 0-18.17-8.04-18.17-17.91 0-9.87 8.3-17.91 18.17-17.91 5.46 0 9.35 2.14 12.27 4.94l-3.45 3.45c-2.1-1.97-4.93-3.49-8.82-3.49-7.21 0-12.84 5.81-12.84 13.02s5.64 13.02 12.84 13.02c4.67 0 7.34-1.88 9.04-3.58 1.4-1.4 2.32-3.41 2.66-6.16h-11.7v-4.89h16.47c.18.87.26 1.92.26 3.06 0 3.67-1.01 8.21-4.24 11.44-3.14 3.26-7.16 5.01-12.49 5.01zm42.2-11.53c0 6.64-5.1 11.53-11.36 11.53s-11.36-4.89-11.36-11.53c0-6.68 5.1-11.53 11.36-11.53s11.36 4.84 11.36 11.53zm-4.98 0c0-4.15-2.96-6.99-6.39-6.99-3.43 0-6.39 2.84-6.39 6.99 0 4.11 2.96 6.99 6.39 6.99 3.43 0 6.39-2.89 6.39-6.99zm30.45 0c0 6.64-5.1 11.53-11.36 11.53s-11.36-4.89-11.36-11.53c0-6.68 5.1-11.53 11.36-11.53s11.36 4.84 11.36 11.53zm-4.97 0c0-4.15-2.96-6.99-6.39-6.99-3.43 0-6.39 2.84-6.39 6.99 0 4.11 2.96 6.99 6.39 6.99 3.43 0 6.39-2.89 6.39-6.99zm29.81-10.83v20.7c0 8.52-5.02 12.01-10.96 12.01-5.59 0-8.95-3.76-10.22-6.81l4.41-1.83c.79 1.88 2.71 4.1 5.81 4.1 3.8 0 6.16-2.36 6.16-6.77v-1.66h-.18c-1.14 1.4-3.32 2.62-6.07 2.62-5.76 0-11.05-5.02-11.05-11.49 0-6.51 5.28-11.57 11.05-11.57 2.75 0 4.93 1.22 6.07 2.58h.18v-1.88h4.8zm-4.45 10.87c0-4.06-2.71-7.03-6.16-7.03-3.49 0-6.42 2.97-6.42 7.03 0 4.02 2.93 6.94 6.42 6.94 3.45.01 6.16-2.92 6.16-6.94zm13.33-23.1v33.89h-5.07V3.06h5.07zm19.92 26.86l3.93 2.62c-1.27 1.88-4.32 5.11-9.61 5.11-6.55 0-11.28-5.07-11.28-11.53 0-6.86 4.77-11.53 10.71-11.53 5.98 0 8.91 4.76 9.87 7.34l.52 1.31-15.42 6.38c1.18 2.31 3.01 3.49 5.59 3.49 2.59 0 4.38-1.27 5.69-3.19zm-12.1-4.15l10.31-4.28c-.57-1.44-2.27-2.45-4.28-2.45-2.58 0-6.16 2.27-6.03 6.73z"/>
</svg>
